<svg width="28" height="35" viewBox="0 0 28 35" fill="none" xmlns="http://www.w3.org/2000/svg">
<path d="M27.4359 4.48484L14.5752 0.0798826C14.42 0.0266275 14.2119 0 14.0037 0C13.7955 0 13.5874 0.0266275 13.4322 0.0798826L0.571503 4.48484C0.257366 4.59135 0 4.95653 0 5.29127V23.6415C0 23.9762 0.215733 24.4175 0.476883 24.6267L13.523 34.844C13.6555 34.9467 13.8258 35 13.9999 35C14.174 35 14.3481 34.9467 14.4768 34.844L27.523 24.6267C27.7841 24.4213 27.9998 23.98 27.9998 23.6415V5.29127C28.0074 4.95653 27.75 4.59515 27.4359 4.48484ZM20.9109 10.982L12.8645 22.1161C12.8079 22.1939 12.7339 22.2572 12.6484 22.3008C12.5629 22.3445 12.4684 22.3672 12.3725 22.3672C12.2766 22.3672 12.182 22.3445 12.0965 22.3008C12.011 22.2572 11.937 22.1939 11.8804 22.1161L7.09647 15.4972C6.95265 15.2956 7.09647 15.0141 7.34248 15.0141H9.43168C9.62471 15.0141 9.81016 15.1092 9.92371 15.2652L10.7511 16.409C11.5497 17.5132 13.1946 17.5128 13.9927 16.4082L18.0837 10.7461C18.1972 10.5902 18.3789 10.4951 18.5757 10.4951H20.6649C20.9109 10.4989 21.0548 10.7804 20.9109 10.982Z" fill="#00C6FB"/>
</svg>
